<svg aria-hidden="true" style="position: absolute; width: 0; height: 0; overflow: hidden;" version="1.1" xmlns="http://www.w3.org/2000/svg" xmlns:xlink="http://www.w3.org/1999/xlink">
<defs>
<symbol id="icon-social-1" viewBox="0 0 32 32">
<path stroke-linejoin="miter" stroke-linecap="butt" stroke-miterlimit="4" stroke-width="0.381" d="M26.882 0.655h-21.637c-2.472 0-4.483 2.006-4.483 4.471v21.579c0 2.465 2.011 4.471 4.483 4.471h21.637c2.472 0 4.483-2.006 4.483-4.471v-21.579c0-2.465-2.011-4.471-4.483-4.471zM29.572 26.705c0 1.479-1.207 2.683-2.69 2.683h-21.637c-1.483 0-2.69-1.203-2.69-2.683v-21.579c0-1.479 1.207-2.683 2.69-2.683h21.637c1.483 0 2.69 1.203 2.69 2.683v21.579z"></path>
<path d="M24.478 22.778c-1.095 0-2.181 0-3.285 0 0-0.053 0-0.102 0-0.151 0-1.779-0-3.557 0-5.336 0-0.379-0.028-0.752-0.123-1.122-0.393-1.523-2.089-1.434-2.763-0.712-0.339 0.363-0.561 0.773-0.57 1.279-0.002 0.121-0.009 0.241-0.009 0.362-0.001 1.841-0 3.682-0 5.523 0 0.050 0 0.099 0 0.157-1.099 0-2.186 0-3.279 0 0-3.395 0-6.786 0-10.183 1.092 0 2.178 0 3.277 0 0 0.46 0 0.913 0 1.366 0.009 0.004 0.017 0.008 0.026 0.011 0.023-0.032 0.047-0.063 0.070-0.095 0.329-0.456 0.706-0.861 1.208-1.134 0.56-0.306 1.165-0.408 1.795-0.39 0.682 0.020 1.329 0.173 1.912 0.54 0.747 0.47 1.203 1.159 1.47 1.984 0.208 0.643 0.276 1.307 0.277 1.979 0.002 1.934 0.001 3.869 0 5.803 0 0.038-0.003 0.076-0.006 0.119z"></path>
<path d="M12.445 22.783c-1.091 0-2.171 0-3.261 0 0-3.396 0-6.791 0-10.192 1.084 0 2.168 0 3.261 0 0 3.393 0 6.788 0 10.192z"></path>
<path d="M10.954 7.522c1.027-0.001 1.754 0.729 1.757 1.766 0.003 1.026-0.734 1.752-1.781 1.752-1.022 0.001-1.75-0.73-1.752-1.756s0.737-1.76 1.776-1.762z"></path>
</symbol>
<symbol id="icon-social-2" viewBox="0 0 32 32">
<path d="M9.085 0.008c-5.001 0-9.085 4.176-9.085 9.29v13.427c0 5.106 4.084 9.274 9.085 9.274h13.131c4.994 0 9.070-4.176 9.070-9.29v-13.419c0-5.114-4.076-9.29-9.078-9.29l-13.124 0.008zM9.085 2.469h13.124c3.7 0 6.671 3.038 6.671 6.829v13.419c0 3.791-2.971 6.829-6.663 6.829h-13.131c-3.708 0-6.678-3.038-6.678-6.813v-13.427c0.008-3.799 2.978-6.836 6.678-6.836zM25.277 4.929c-0.669 0-1.203 0.546-1.203 1.23s0.534 1.23 1.203 1.23c0.669 0 1.203-0.546 1.203-1.23s-0.534-1.23-1.203-1.23zM15.651 7.39c-4.633 0-8.423 3.876-8.423 8.613s3.79 8.613 8.423 8.613c4.633 0 8.423-3.876 8.423-8.613s-3.79-8.613-8.423-8.613zM15.651 9.851c3.339 0 6.017 2.738 6.017 6.152s-2.677 6.152-6.017 6.152c-3.339 0-6.017-2.738-6.017-6.152s2.677-6.152 6.017-6.152z"></path>
</symbol>
<symbol id="icon-social-3" viewBox="0 0 32 32">
<path stroke-linejoin="miter" stroke-linecap="butt" stroke-miterlimit="4" stroke-width="0.3902" d="M26.72 0.169h-22.134c-2.529 0-4.586 2.051-4.586 4.573v22.073c0 2.522 2.057 4.573 4.586 4.573h22.134c2.529 0 4.586-2.052 4.586-4.573v-22.073c0-2.522-2.057-4.573-4.586-4.573zM29.472 26.816c0 1.513-1.234 2.744-2.752 2.744h-22.134c-1.517 0-2.752-1.231-2.752-2.744v-22.073c0-1.513 1.234-2.744 2.752-2.744h22.134c1.517 0 2.752 1.231 2.752 2.744v22.073z"></path>
<path stroke-linejoin="miter" stroke-linecap="butt" stroke-miterlimit="4" stroke-width="0.3902" d="M14.736 13.035c0-2.017-1.646-3.659-3.669-3.659h-5.503v12.805h5.503c2.023 0 3.669-1.641 3.669-3.659 0-1.092-0.483-2.073-1.246-2.744 0.763-0.671 1.246-1.652 1.246-2.744zM12.902 18.523c0 1.009-0.823 1.829-1.834 1.829h-3.669v-3.659h3.669c1.011 0 1.834 0.821 1.834 1.829zM7.399 14.864v-3.659h3.669c1.011 0 1.834 0.821 1.834 1.829s-0.823 1.829-1.834 1.829h-3.669z"></path>
<path stroke-linejoin="miter" stroke-linecap="butt" stroke-miterlimit="4" stroke-width="0.3902" d="M21.156 13.035c-2.529 0-4.586 2.051-4.586 4.573s2.057 4.573 4.586 4.573c1.632 0 3.154-0.876 3.972-2.286l-1.588-0.916c-0.491 0.847-1.405 1.373-2.384 1.373-1.196 0-2.216-0.765-2.594-1.829h7.18v-0.915c0-2.522-2.057-4.573-4.586-4.573zM18.562 16.694c0.379-1.065 1.398-1.829 2.594-1.829s2.216 0.765 2.594 1.829h-5.189z"></path>
<path stroke-linejoin="miter" stroke-linecap="butt" stroke-miterlimit="4" stroke-width="0.3902" d="M17.487 9.377h7.337v1.829h-7.337v-1.829z"></path>
</symbol>
<symbol id="icon-social-4" viewBox="0 0 32 32">
<path d="M15.643 0c-8.619 0-15.643 7.184-15.643 15.999s7.024 15.999 15.643 15.999c8.619 0 15.643-7.184 15.643-15.999s-7.024-15.999-15.643-15.999zM15.643 2.461c3.144 0 6.017 1.115 8.28 2.984-1.151 1.446-3.264 3.454-6.806 4.769-1.925-3.561-3.535-5.838-4.655-7.346 1.015-0.254 2.083-0.408 3.181-0.408zM10.078 3.731c0.94 1.238 2.64 3.569 4.663 7.215-5.197 1.392-9.89 1.485-11.845 1.423 1.045-3.846 3.693-6.992 7.182-8.638zM25.654 7.154c2.001 2.377 3.226 5.461 3.226 8.846 0 0.508-0.030 1-0.083 1.492-0.436-0.062-0.76-0.115-1.316-0.162-1.865-0.146-4.332-0.146-7.002 0.262-0.699-1.854-1.467-3.569-2.256-5.177 3.715-1.454 6.069-3.6 7.431-5.261zM15.884 13.176c0.76 1.523 1.497 3.154 2.181 4.907-3.166 0.961-6.047 3.154-8.258 5.192-1.181 1.077-2.151 2.108-2.873 2.915-2.775-2.484-4.535-6.115-4.535-10.184 0-0.408 0.030-0.792 0.060-1.185 1.715 0.069 7.197 0.123 13.425-1.646zM23.848 19.714c1.85-0.069 3.309 0.062 4.467 0.192-0.872 3.008-2.745 5.569-5.22 7.292-0.399-2.531-1.015-4.961-1.76-7.253 0.865-0.115 1.715-0.192 2.512-0.231zM18.93 20.391c0.857 2.531 1.534 5.231 1.918 8.061-1.602 0.692-3.354 1.085-5.212 1.085-2.474 0-4.768-0.7-6.746-1.892 0.669-0.731 1.497-1.615 2.52-2.546 2.128-1.954 4.904-3.946 7.521-4.708z"></path>
</symbol>
</defs>
</svg>
